{
  "asset": {
    "version": "2.0",
    "generator": "TurboSquid Stem Converter v1.0.0"
  },
  "accessors": [
    {
      "bufferView": 0,
      "byteOffset": 0,
      "componentType": 5126,
      "count": 391,
      "type": "VEC3",
      "max": [
        0.8223000168800354,
        0.538100004196167,
        4.591700077056885
      ],
      "min": [
        -0.8223000168800354,
        -0.538100004196167,
        -0.009700000286102295
      ]
    },
    {
      "bufferView": 1,
      "byteOffset": 0,
      "componentType": 5126,
      "count": 391,
      "type": "VEC3",
      "max": [
        0.9995760917663574,
        0.9998442530632019,
        0.9777494668960571
      ],
      "min": [
        -0.9965208172798157,
        -0.9996333718299866,
        -0.937158465385437
      ]
    },
    {
      "bufferView": 2,
      "byteOffset": 0,
      "componentType": 5126,
      "count": 391,
      "type": "VEC2",
      "max": [
        0.5514320731163025,
        0.9671868681907654
      ],
      "min": [
        0.3668525218963623,
        0.02747213840484619
      ]
    },
    {
      "bufferView": 3,
      "byteOffset": 0,
      "componentType": 5123,
      "count": 2112,
      "type": "SCALAR",
      "max": [
        390.0
      ],
      "min": [
        0.0
      ]
    }
  ],
  "buffers": [
    {
      "byteLength": 16736,
      "uri": "Human Teeth Upper Lateral Incisor.bin"
    }
  ],
  "bufferViews": [
    {
      "buffer": 0,
      "byteOffset": 0,
      "byteLength": 4692,
      "target": 34962
    },
    {
      "buffer": 0,
      "byteOffset": 4692,
      "byteLength": 4692,
      "target": 34962
    },
    {
      "buffer": 0,
      "byteOffset": 9384,
      "byteLength": 3128,
      "target": 34962
    },
    {
      "buffer": 0,
      "byteOffset": 12512,
      "byteLength": 4224,
      "target": 34963
    }
  ],
  "materials": [
    {
      "name": "teeth_material_StemCell",
      "pbrMetallicRoughness": {
        "baseColorTexture": {
          "index": 0
        },
        "metallicRoughnessTexture": {
          "index": 1
        }
      },
      "alphaMode": "BLEND",
      "occlusionTexture": {
        "index": 1
      },
      "normalTexture": {
        "index": 2
      }
    }
  ],
  "meshes": [
    {
      "name": "Human_Teeth_Upper_Lateral_Incisor_Geo",
      "primitives": [
        {
          "mode": 4,
          "material": 0,
          "indices": 3,
          "attributes": {
            "POSITION": 0,
            "NORMAL": 1,
            "TEXCOORD_0": 2
          }
        }
      ]
    }
  ],
  "nodes": [
    {
      "children": [
        1
      ]
    },
    {
      "name": "Human_Teeth_Upper_Lateral_Incisor_Group_$_PreRotation",
      "matrix": [
        1.0,
        0.0,
        0.0,
        0.0,
        0.0,
        -4.371138828673793e-08,
        -1.0,
        0.0,
        0.0,
        1.0,
        -4.371138828673793e-08,
        0.0,
        0.0,
        0.0,
        0.0,
        1.0
      ],
      "children": [
        2
      ]
    },
    {
      "name": "Human_Teeth_Upper_Lateral_Incisor_Group_$_GeometricTranslation",
      "matrix": [
        1.0,
        0.0,
        0.0,
        0.0,
        0.0,
        1.0,
        0.0,
        0.0,
        0.0,
        0.0,
        1.0,
        0.0,
        0.0,
        0.0,
        2.2910003662109375,
        1.0
      ],
      "children": [
        3
      ]
    },
    {
      "name": "Human_Teeth_Upper_Lateral_Incisor_Group",
      "children": [
        4
      ]
    },
    {
      "name": "Human_Teeth_Upper_Lateral_Incisor_Group_$_GeometricTranslationInverse",
      "matrix": [
        1.0,
        0.0,
        0.0,
        0.0,
        0.0,
        1.0,
        0.0,
        0.0,
        0.0,
        0.0,
        1.0,
        0.0,
        -0.0,
        -0.0,
        -2.2910003662109375,
        1.0
      ],
      "children": [
        5
      ]
    },
    {
      "name": "node",
      "children": [
        6
      ]
    },
    {
      "name": "Human_Teeth_Upper_Lateral_Incisor_Geo",
      "mesh": 0
    }
  ],
  "scenes": [
    {
      "nodes": [
        0
      ]
    }
  ],
  "scene": 0,
  "samplers": [
    {
      "magFilter": 9729,
      "minFilter": 9987,
      "wrapS": 10497,
      "wrapT": 10497
    }
  ],
  "images": [
    {
      "uri": "textures/baseColor.png"
    },
    {
      "uri": "textures/occlusionRoughnessMetallic.jpg"
    },
    {
      "uri": "textures/normal.png"
    }
  ],
  "textures": [
    {
      "sampler": 0,
      "source": 0
    },
    {
      "sampler": 0,
      "source": 1
    },
    {
      "sampler": 0,
      "source": 2
    }
  ]
}