{
  "asset": {
    "version": "2.0",
    "generator": "TurboSquid Stem Converter v1.0.0"
  },
  "accessors": [
    {
      "bufferView": 0,
      "byteOffset": 0,
      "componentType": 5126,
      "count": 1166,
      "type": "VEC3",
      "max": [
        0.8522279858589172,
        0.7379080057144165,
        5.616909027099609
      ],
      "min": [
        -0.8430119752883911,
        -0.7326560020446777,
        -0.003261999925598502
      ]
    },
    {
      "bufferView": 1,
      "byteOffset": 0,
      "componentType": 5126,
      "count": 1166,
      "type": "VEC3",
      "max": [
        0.9999656677246094,
        0.9999966621398926,
        0.9998186826705933
      ],
      "min": [
        -0.9987935423851013,
        -0.9999976754188538,
        -0.9987931847572327
      ]
    },
    {
      "bufferView": 2,
      "byteOffset": 0,
      "componentType": 5126,
      "count": 1166,
      "type": "VEC2",
      "max": [
        0.6247000098228455,
        0.9855960011482239
      ],
      "min": [
        0.40660399198532104,
        0.014403998851776123
      ]
    },
    {
      "bufferView": 3,
      "byteOffset": 0,
      "componentType": 5123,
      "count": 6666,
      "type": "SCALAR",
      "max": [
        1165.0
      ],
      "min": [
        0.0
      ]
    }
  ],
  "buffers": [
    {
      "byteLength": 50644,
      "uri": "Human Teeth Upper First Premolar.bin"
    }
  ],
  "bufferViews": [
    {
      "buffer": 0,
      "byteOffset": 0,
      "byteLength": 13992,
      "target": 34962
    },
    {
      "buffer": 0,
      "byteOffset": 13992,
      "byteLength": 13992,
      "target": 34962
    },
    {
      "buffer": 0,
      "byteOffset": 27984,
      "byteLength": 9328,
      "target": 34962
    },
    {
      "buffer": 0,
      "byteOffset": 37312,
      "byteLength": 13332,
      "target": 34963
    }
  ],
  "materials": [
    {
      "name": "teeth_material",
      "pbrMetallicRoughness": {
        "baseColorTexture": {
          "index": 0
        },
        "metallicRoughnessTexture": {
          "index": 1
        }
      },
      "alphaMode": "OPAQUE",
      "occlusionTexture": {
        "index": 1
      },
      "normalTexture": {
        "index": 2
      }
    }
  ],
  "meshes": [
    {
      "name": "Human_Teeth_Upper_First_Premolar_Geo",
      "primitives": [
        {
          "mode": 4,
          "material": 0,
          "indices": 3,
          "attributes": {
            "POSITION": 0,
            "NORMAL": 1,
            "TEXCOORD_0": 2
          }
        }
      ]
    }
  ],
  "nodes": [
    {
      "children": [
        1
      ]
    },
    {
      "name": "Human_Teeth_Upper_First_Premolar_Group_$_Translation",
      "matrix": [
        1.0,
        0.0,
        0.0,
        0.0,
        0.0,
        1.0,
        0.0,
        0.0,
        0.0,
        0.0,
        1.0,
        0.0,
        -2.9802322387695312e-08,
        2.8100855350494385,
        -0.0,
        1.0
      ],
      "children": [
        2
      ]
    },
    {
      "name": "Human_Teeth_Upper_First_Premolar_Group_$_PreRotation",
      "matrix": [
        1.0,
        0.0,
        0.0,
        0.0,
        0.0,
        -4.371138828673793e-08,
        -1.0,
        0.0,
        0.0,
        1.0,
        -4.371138828673793e-08,
        0.0,
        0.0,
        0.0,
        0.0,
        1.0
      ],
      "children": [
        3
      ]
    },
    {
      "name": "Human_Teeth_Upper_First_Premolar_Group",
      "children": [
        4
      ]
    },
    {
      "name": "node",
      "matrix": [
        1.0,
        0.0,
        0.0,
        0.0,
        0.0,
        1.0,
        0.0,
        0.0,
        0.0,
        0.0,
        1.0,
        0.0,
        -0.0046080052852630615,
        -0.0026260018348693848,
        -2.806823492050171,
        1.0
      ],
      "children": [
        5
      ]
    },
    {
      "name": "Human_Teeth_Upper_First_Premolar_Geo",
      "mesh": 0
    }
  ],
  "scenes": [
    {
      "nodes": [
        0
      ]
    }
  ],
  "scene": 0,
  "samplers": [
    {
      "magFilter": 9729,
      "minFilter": 9987,
      "wrapS": 10497,
      "wrapT": 10497
    }
  ],
  "images": [
    {
      "uri": "textures/baseColor.jpg"
    },
    {
      "uri": "textures/occlusionRoughnessMetallic.jpg"
    },
    {
      "uri": "textures/normal.png"
    }
  ],
  "textures": [
    {
      "sampler": 0,
      "source": 0
    },
    {
      "sampler": 0,
      "source": 1
    },
    {
      "sampler": 0,
      "source": 2
    }
  ]
}