<svg width="148" height="25" viewBox="0 0 148 25" fill="none" xmlns="http://www.w3.org/2000/svg">
<path d="M8.239 15.0641H14.315L11.36 5.61771H11.298L8.239 15.0641ZM5.243 24.1152H0L8.489 0.249512H14.252L22.679 24.1152H17.249L15.73 19.2048H6.90799L5.243 24.1152Z" fill="#E4BF69"/>
<path d="M30.01 4.3278H25.349V0H30.01V4.3278ZM30.01 6.4293V24.1154H25.349V6.4293H30.01Z" fill="#E4BF69"/>
<path d="M48.543 19.9954H53.3909C55.0969 19.9954 56.4289 19.2828 57.3859 17.8523C58.3429 16.427 58.8219 14.4607 58.8219 11.9639C58.8219 9.39941 58.3739 7.49041 57.4899 6.24191C56.6159 4.98311 55.2849 4.34851 53.4949 4.34851H48.543V19.9954ZM43.653 0.249512H54.182C57.412 0.249512 59.8409 1.30021 61.4639 3.39141C63.0869 5.48771 63.8989 8.22901 63.8989 11.6102C63.8989 15.3554 63.03 18.3829 61.298 20.6821C59.576 22.9708 57.1419 24.1152 53.9949 24.1152H43.653V0.249512Z" fill="#E4BF69"/>
<path d="M78.661 13.5038C78.562 12.3803 78.193 11.4804 77.558 10.7989C76.919 10.1227 76.092 9.77938 75.082 9.77938C72.861 9.77938 71.597 11.0226 71.296 13.5038H78.661ZM83.26 18.9345C82.719 20.7655 81.746 22.17 80.347 23.1375C78.958 24.1103 77.335 24.594 75.478 24.594C72.565 24.594 70.338 23.7929 68.799 22.1804C67.269 20.5731 66.51 18.3467 66.51 15.5013C66.51 12.6455 67.228 10.3412 68.674 8.59338C70.115 6.84558 72.273 5.97168 75.145 5.97168C77.709 5.97168 79.733 6.79358 81.221 8.42688C82.703 10.0499 83.447 12.4791 83.447 15.7094V16.5417H71.171C71.264 17.9722 71.68 19.0489 72.419 19.7668C73.153 20.4898 74.156 20.8487 75.436 20.8487C76.185 20.8487 76.835 20.6771 77.392 20.3286C77.943 19.9696 78.308 19.5067 78.474 18.9345H83.26Z" fill="#E4BF69"/>
<path d="M102.699 24.1155H98.038V13.1293C98.038 12.1046 97.798 11.3087 97.33 10.7365C96.873 10.1695 96.103 9.88338 95.021 9.88338C93.897 9.88338 93.002 10.2527 92.337 10.9862C91.681 11.7092 91.359 12.7028 91.359 13.9616V24.1155H86.698V6.42938H91.171V9.00948H91.234C92.342 6.98598 94.105 5.97168 96.519 5.97168C98.319 5.97168 99.796 6.49178 100.951 7.53218C102.116 8.56218 102.699 10.0082 102.699 11.8809V24.1155Z" fill="#E4BF69"/>
<path d="M112.198 6.42916H115.09V9.73756H112.198V19.6625C112.198 20.1359 112.323 20.4428 112.572 20.578C112.832 20.7185 113.228 20.7861 113.758 20.7861C114.284 20.7861 114.726 20.7653 115.09 20.7237V24.1777C114.409 24.2869 113.571 24.3441 112.572 24.3441C110.726 24.3441 109.42 24.0684 108.661 23.5118C107.912 22.9605 107.537 21.9513 107.537 20.4948V9.73756H105.144V6.42916H107.537V1.64355H112.198V6.42916Z" fill="#E4BF69"/>
<path d="M128.696 3.07931H124.868V13.9406H121.164V3.07931H117.357V0.249512H128.696V3.07931ZM139.516 8.55151L142.616 0.249512H147.693V13.9406H144.156V4.59821H144.094L140.848 13.9406H138.143L134.876 4.59821H134.814V13.9406H131.297V0.249512H136.395L139.516 8.55151Z" fill="#E4BF69"/>
</svg>
