{
  "asset": {
    "version": "2.0",
    "generator": "TurboSquid Stem Converter v1.0.0"
  },
  "accessors": [
    {
      "bufferView": 0,
      "byteOffset": 0,
      "componentType": 5126,
      "count": 771,
      "type": "VEC3",
      "max": [
        1.0696840286254883,
        1.0366480350494385,
        4.84761381149292
      ],
      "min": [
        -1.0696840286254883,
        -1.0366480350494385,
        0.014526000246405602
      ]
    },
    {
      "bufferView": 1,
      "byteOffset": 0,
      "componentType": 5126,
      "count": 771,
      "type": "VEC3",
      "max": [
        0.9985001087188721,
        0.9993135929107666,
        0.9999537467956543
      ],
      "min": [
        -0.9998592138290405,
        -0.9995835423469543,
        -0.9994873404502869
      ]
    },
    {
      "bufferView": 2,
      "byteOffset": 0,
      "componentType": 5126,
      "count": 771,
      "type": "VEC2",
      "max": [
        0.968762218952179,
        0.9674431085586548
      ],
      "min": [
        0.024136750027537346,
        0.022162199020385742
      ]
    },
    {
      "bufferView": 3,
      "byteOffset": 0,
      "componentType": 5123,
      "count": 4176,
      "type": "SCALAR",
      "max": [
        770.0
      ],
      "min": [
        0.0
      ]
    }
  ],
  "buffers": [
    {
      "byteLength": 33024,
      "uri": "Human Teeth Upper Second Molar.bin"
    }
  ],
  "bufferViews": [
    {
      "buffer": 0,
      "byteOffset": 0,
      "byteLength": 9252,
      "target": 34962
    },
    {
      "buffer": 0,
      "byteOffset": 9252,
      "byteLength": 9252,
      "target": 34962
    },
    {
      "buffer": 0,
      "byteOffset": 18504,
      "byteLength": 6168,
      "target": 34962
    },
    {
      "buffer": 0,
      "byteOffset": 24672,
      "byteLength": 8352,
      "target": 34963
    }
  ],
  "materials": [
    {
      "name": "teeth_material_2_StemCell",
      "pbrMetallicRoughness": {
        "baseColorTexture": {
          "index": 0
        },
        "metallicRoughnessTexture": {
          "index": 1
        }
      },
      "alphaMode": "OPAQUE",
      "occlusionTexture": {
        "index": 1
      },
      "normalTexture": {
        "index": 2
      }
    }
  ],
  "meshes": [
    {
      "name": "Human_Teeth_Upper_Second_Molar_Geo",
      "primitives": [
        {
          "mode": 4,
          "material": 0,
          "indices": 3,
          "attributes": {
            "POSITION": 0,
            "NORMAL": 1,
            "TEXCOORD_0": 2
          }
        }
      ]
    }
  ],
  "nodes": [
    {
      "children": [
        1
      ]
    },
    {
      "name": "Human_Teeth_Upper_Second_Molar_Group_$_PreRotation",
      "matrix": [
        1.0,
        0.0,
        0.0,
        0.0,
        0.0,
        -4.371138828673793e-08,
        -1.0,
        0.0,
        0.0,
        1.0,
        -4.371138828673793e-08,
        0.0,
        0.0,
        0.0,
        0.0,
        1.0
      ],
      "children": [
        2
      ]
    },
    {
      "name": "Human_Teeth_Upper_Second_Molar_Group_$_GeometricTranslation",
      "matrix": [
        1.0,
        0.0,
        0.0,
        0.0,
        0.0,
        1.0,
        0.0,
        0.0,
        0.0,
        0.0,
        1.0,
        0.0,
        -0.0012694001197814941,
        -0.0017603039741516113,
        2.4125661849975586,
        1.0
      ],
      "children": [
        3
      ]
    },
    {
      "name": "Human_Teeth_Upper_Second_Molar_Group",
      "children": [
        4
      ]
    },
    {
      "name": "Human_Teeth_Upper_Second_Molar_Group_$_GeometricTranslationInverse",
      "matrix": [
        1.0,
        0.0,
        0.0,
        0.0,
        0.0,
        1.0,
        0.0,
        0.0,
        0.0,
        0.0,
        1.0,
        0.0,
        0.0012694001197814941,
        0.0017603039741516113,
        -2.4125661849975586,
        1.0
      ],
      "children": [
        5
      ]
    },
    {
      "name": "node",
      "matrix": [
        1.0,
        0.0,
        0.0,
        0.0,
        0.0,
        1.0,
        0.0,
        0.0,
        0.0,
        0.0,
        1.0,
        0.0,
        -0.0012694001197814941,
        -0.0017603039741516113,
        -0.018503665924072266,
        1.0
      ],
      "children": [
        6
      ]
    },
    {
      "name": "Human_Teeth_Upper_Second_Molar_Geo",
      "mesh": 0
    }
  ],
  "scenes": [
    {
      "nodes": [
        0
      ]
    }
  ],
  "scene": 0,
  "samplers": [
    {
      "magFilter": 9729,
      "minFilter": 9987,
      "wrapS": 10497,
      "wrapT": 10497
    }
  ],
  "images": [
    {
      "uri": "textures/baseColor.jpg"
    },
    {
      "uri": "textures/occlusionRoughnessMetallic.jpg"
    },
    {
      "uri": "textures/normal.png"
    }
  ],
  "textures": [
    {
      "sampler": 0,
      "source": 0
    },
    {
      "sampler": 0,
      "source": 1
    },
    {
      "sampler": 0,
      "source": 2
    }
  ]
}